<svg xmlns="http://www.w3.org/2000/svg" viewBox="0 0 192.86 180.06"><g id="Capa_2" data-name="Capa 2"><g id="Capa_1-2" data-name="Capa 1"><path d="M174,179.08c-11.18,3.6-17.27-3.08-22.71-14-15.94-31.88-32.88-63.26-49.55-94.77-1.19-2.23-3.43-3.91-5.18-5.84C94.94,66.35,93,68,91.87,70.09c-17.78,33.81-35.58,67.61-53,101.58-2.82,5.49-6,8-12.32,7.38S14,179,7.72,178.93c-8.7,0-9.36-1-5.38-8.56q17.69-33.51,35.48-67Q62.51,56.75,87.16,10.06C88,8.42,88.82,6.74,89.8,5.17c4.37-7,8.55-6.9,12.45.35Q133,62.71,163.66,120q13.62,25.39,27.15,50.85c3.56,6.73,2.75,8.07-4.68,8.25C182.65,179.15,179.16,179.08,174,179.08Z" style="fill:#fff"/></g></g></svg>