<svg xmlns="http://www.w3.org/2000/svg" viewBox="0 0 525.7 180.06"><g id="Capa_2" data-name="Capa 2"><g id="Capa_1-2" data-name="Capa 1"><path d="M351.75,1c11.18-3.6,17.27,3.08,22.71,14C390.4,46.83,407.34,78.21,424,109.72c1.19,2.23,3.43,3.91,5.18,5.84,1.57-1.85,3.54-3.5,4.64-5.59,17.78-33.81,35.58-67.61,53-101.58,2.82-5.49,6-8,12.32-7.38s12.53.09,18.8.12c8.7,0,9.36,1,5.38,8.56q-17.69,33.51-35.48,67Q463.19,123.32,438.54,170c-.87,1.63-1.66,3.32-2.64,4.89-4.37,7-8.55,6.9-12.45-.35Q392.72,117.35,362,60.1,348.42,34.69,334.89,9.25c-3.56-6.73-2.75-8.07,4.68-8.25C343.05.91,346.54,1,351.75,1Z" style="fill:#fff"/><path d="M309.18,84.4c27.94,19.45,32.31,58.39,8.07,80.93-10.13,9.42-22.77,13.67-36.12,14-31.41.75-62.85.4-94.28.7-5.69.05-7.12-2.43-7.11-7.63q0-81.67-.25-163.36c0-6.76,2.78-8.64,9.1-8.6,28.35.16,56.71-.33,85,0,35.45.43,58.9,29.73,48.67,61.16C319.73,69.49,313.92,76.34,309.18,84.4Zm-98.11,17.52c0,15.09-.16,30.72.26,46.32,0,1.55,3.61,4.3,5.54,4.3,21,0,42.08.16,63-1.08,13.93-.82,21.19-10.21,21.47-24.4s-6.58-24-20.66-24.81C258.13,101,235.43,101.92,211.07,101.92Zm.06-29.45c21.25,0,41.1.51,60.91-.18,12.45-.44,20.21-8.75,20.92-20,.78-12.37-5.24-21.58-18.3-22.72C255,27.89,235,28.36,215.22,28.22c-1.36,0-3.88,2.58-3.91,4C211,45.3,211.13,58.4,211.13,72.47Z" style="fill:#fff"/><path d="M128.58,84.23c25,13.72,27.5,38.85,21.16,61.12-5.6,19.69-23.21,32.87-47.43,33.75-31.93,1.15-63.91.51-95.87.74-4.61,0-6.45-1.8-6.44-6.5C.09,118.1,0,62.87.28,7.63c0-2.27,3.32-6.5,5.1-6.5,33.05,0,66.28-1.5,99.11,1.38,30.26,2.64,47.43,32.89,37.17,60.93C139,70.75,133.27,77,128.58,84.23ZM64.89,99.62l0,.67c-9.24,0-18.48.18-27.71-.08-4.73-.13-6.44,1.58-6.37,6.3.21,13.44.16,26.88,0,40.32-.05,4.09,1.15,6.4,5.62,6.3,21.25-.46,42.54-.26,63.75-1.52,13.6-.81,20.82-9.56,21.25-22.55.56-16.39-5.09-25-19.76-27.08C89.53,100.26,77.15,100.34,64.89,99.62ZM64,72.82v-.09c9,0,17.94.35,26.88-.08,16-.77,24.44-11.34,22-27C111.28,34.92,102.16,28.2,87.87,28c-16.8-.29-33.61.08-50.41-.19-5.27-.09-6.8,1.92-6.69,6.89q.38,16,0,31.92c-.1,4.74,1.63,6.46,6.35,6.33C46.08,72.64,55,72.82,64,72.82Z" style="fill:#fff"/></g></g></svg>